<?xml version="1.0" encoding="UTF-8"?>
<svg id="Layer_1" xmlns="http://www.w3.org/2000/svg" version="1.1" viewBox="0 0 293 67">
  <!-- Generator: Adobe Illustrator 29.2.1, SVG Export Plug-In . SVG Version: 2.1.0 Build 116)  -->
  <defs>
    <style>
      .st0 {
        fill: #004eff;
      }

      .st1 {
        fill: #fff;
      }
    </style>
  </defs>
  <path class="st0" d="M66,0H22v22.8h22v22h22V0Z"/>
  <rect class="st0" y="22.8" width="22" height="22"/>
  <rect class="st0" x="22" y="44.8" width="22" height="22"/>
  <path class="st1" d="M90,64.4V5.1h26.7c6.3,0,11.3,1.7,15,5.2,3.6,3.4,5.5,8,5.5,13.9s-1.8,10.5-5.5,14c-3.6,3.4-8.6,5.1-15,5.1h-20v21.2h-6.7ZM96.7,37h19.5c4.7,0,8.2-1.1,10.6-3.4,2.4-2.3,3.6-5.4,3.6-9.4s-1.2-7.1-3.6-9.3c-2.4-2.3-5.9-3.4-10.6-3.4h-19.5v25.5Z"/>
  <path class="st1" d="M140.8,64.4V1.7h6.7v62.7h-6.7Z"/>
  <path class="st1" d="M174.1,65.1c-4.4,0-8.2-1-11.5-3-3.2-2.1-5.7-4.9-7.5-8.4-1.8-3.5-2.7-7.4-2.7-11.7s.9-8.2,2.7-11.7c1.8-3.5,4.3-6.3,7.5-8.3,3.3-2.1,7.1-3.1,11.5-3.1s6.9.7,9.5,2.2c2.7,1.4,4.9,3.4,6.5,5.8v-7.3h6.7v44.8h-6.7v-7.2c-1.7,2.4-3.9,4.3-6.5,5.7-2.6,1.4-5.8,2.2-9.5,2.2ZM175,59c3.3,0,6.2-.8,8.4-2.3,2.3-1.6,4.1-3.6,5.3-6.2,1.2-2.6,1.8-5.5,1.8-8.5s-.6-5.9-1.8-8.5c-1.2-2.6-3-4.6-5.3-6.2-2.3-1.6-5.1-2.3-8.4-2.3s-6.1.8-8.5,2.3c-2.4,1.6-4.2,3.6-5.5,6.2-1.3,2.6-1.9,5.4-1.9,8.5s.6,5.9,1.9,8.5c1.3,2.6,3.1,4.6,5.5,6.2,2.4,1.6,5.2,2.3,8.5,2.3Z"/>
  <path class="st1" d="M204.4,64.4V19.6h6.7v7c1.6-2.2,3.6-4,5.9-5.5,2.3-1.5,5.3-2.2,9-2.2s6,.7,8.7,2.2c2.7,1.4,5,3.6,6.6,6.5,1.7,2.9,2.6,6.4,2.6,10.7v26.1h-6.7v-25.9c0-4.1-1.2-7.3-3.5-9.8-2.3-2.5-5.3-3.8-9.1-3.8s-4.8.6-6.8,1.7c-2,1.1-3.7,2.7-4.9,4.8-1.2,2-1.8,4.4-1.8,7.1v25.8h-6.7Z"/>
  <path class="st1" d="M271.1,65.1c-4.5,0-8.5-1-11.9-3-3.4-2.1-6.1-4.9-8-8.4-1.9-3.5-2.8-7.4-2.8-11.7s.9-8.2,2.7-11.7c1.8-3.5,4.4-6.3,7.7-8.3,3.3-2.1,7.3-3.1,11.8-3.1s8.5,1,11.8,3.1c3.3,2,5.9,4.8,7.7,8.3,1.8,3.5,2.7,7.3,2.7,11.7v2.7h-37.6c.4,2.6,1.2,5,2.5,7.3,1.4,2.2,3.2,3.9,5.5,5.2,2.3,1.3,4.9,1.9,7.9,1.9s5.8-.7,8-2.1c2.2-1.4,3.8-3.3,5-5.5h7.4c-1.6,4-4,7.3-7.4,9.9-3.3,2.5-7.7,3.8-13,3.8ZM255.4,38.4h30.5c-.6-3.8-2.2-7-4.8-9.6-2.6-2.6-6.1-3.9-10.4-3.9s-7.8,1.3-10.4,3.9c-2.6,2.6-4.2,5.8-4.8,9.6Z"/>
</svg>